<mxfile host="drawio-plugin" modified="2021-04-21T00:02:33.302Z" agent="5.0 (Windows NT 6.2; Win64; x64) AppleWebKit/537.36 (KHTML, like Gecko) Chrome/87.0.4280.141 Safari/537.36" etag="iusLW9NmlcDrBSSNHkXg" version="13.7.9" type="embed"><diagram id="NoLcGY3_Rd0w1QSIiBX1" name="Page-1"><mxGraphModel dx="659" dy="425" grid="1" gridSize="10" guides="1" tooltips="1" connect="1" arrows="1" fold="1" page="1" pageScale="1" pageWidth="1169" pageHeight="827" math="0" shadow="0"><root><mxCell id="0"/><mxCell id="1" parent="0"/><mxCell id="TI3GmT-DSjy5wb8d_JhB-1" value="Survey" style="shape=table;startSize=30;container=1;collapsible=1;childLayout=tableLayout;fixedRows=1;rowLines=0;fontStyle=1;align=center;resizeLast=1;" parent="1" vertex="1"><mxGeometry x="80" y="80" width="180" height="160" as="geometry"/></mxCell><mxCell id="TI3GmT-DSjy5wb8d_JhB-2" value="" style="shape=partialRectangle;collapsible=0;dropTarget=0;pointerEvents=0;fillColor=none;top=0;left=0;bottom=1;right=0;points=[[0,0.5],[1,0.5]];portConstraint=eastwest;" parent="TI3GmT-DSjy5wb8d_JhB-1" vertex="1"><mxGeometry y="30" width="180" height="30" as="geometry"/></mxCell><mxCell id="TI3GmT-DSjy5wb8d_JhB-3" value="PK" style="shape=partialRectangle;connectable=0;fillColor=none;top=0;left=0;bottom=0;right=0;fontStyle=1;overflow=hidden;" parent="TI3GmT-DSjy5wb8d_JhB-2" vertex="1"><mxGeometry width="30" height="30" as="geometry"/></mxCell><mxCell id="TI3GmT-DSjy5wb8d_JhB-4" value="UniqueID" style="shape=partialRectangle;connectable=0;fillColor=none;top=0;left=0;bottom=0;right=0;align=left;spacingLeft=6;fontStyle=5;overflow=hidden;" parent="TI3GmT-DSjy5wb8d_JhB-2" vertex="1"><mxGeometry x="30" width="150" height="30" as="geometry"/></mxCell><mxCell id="TI3GmT-DSjy5wb8d_JhB-5" value="" style="shape=partialRectangle;collapsible=0;dropTarget=0;pointerEvents=0;fillColor=none;top=0;left=0;bottom=0;right=0;points=[[0,0.5],[1,0.5]];portConstraint=eastwest;" parent="TI3GmT-DSjy5wb8d_JhB-1" vertex="1"><mxGeometry y="60" width="180" height="30" as="geometry"/></mxCell><mxCell id="TI3GmT-DSjy5wb8d_JhB-6" value="" style="shape=partialRectangle;connectable=0;fillColor=none;top=0;left=0;bottom=0;right=0;editable=1;overflow=hidden;" parent="TI3GmT-DSjy5wb8d_JhB-5" vertex="1"><mxGeometry width="30" height="30" as="geometry"/></mxCell><mxCell id="TI3GmT-DSjy5wb8d_JhB-7" value="title" style="shape=partialRectangle;connectable=0;fillColor=none;top=0;left=0;bottom=0;right=0;align=left;spacingLeft=6;overflow=hidden;" parent="TI3GmT-DSjy5wb8d_JhB-5" vertex="1"><mxGeometry x="30" width="150" height="30" as="geometry"/></mxCell><mxCell id="TI3GmT-DSjy5wb8d_JhB-8" value="" style="shape=partialRectangle;collapsible=0;dropTarget=0;pointerEvents=0;fillColor=none;top=0;left=0;bottom=0;right=0;points=[[0,0.5],[1,0.5]];portConstraint=eastwest;" parent="TI3GmT-DSjy5wb8d_JhB-1" vertex="1"><mxGeometry y="90" width="180" height="30" as="geometry"/></mxCell><mxCell id="TI3GmT-DSjy5wb8d_JhB-9" value="" style="shape=partialRectangle;connectable=0;fillColor=none;top=0;left=0;bottom=0;right=0;editable=1;overflow=hidden;" parent="TI3GmT-DSjy5wb8d_JhB-8" vertex="1"><mxGeometry width="30" height="30" as="geometry"/></mxCell><mxCell id="TI3GmT-DSjy5wb8d_JhB-10" value="participants" style="shape=partialRectangle;connectable=0;fillColor=none;top=0;left=0;bottom=0;right=0;align=left;spacingLeft=6;overflow=hidden;" parent="TI3GmT-DSjy5wb8d_JhB-8" vertex="1"><mxGeometry x="30" width="150" height="30" as="geometry"/></mxCell><mxCell id="TI3GmT-DSjy5wb8d_JhB-11" value="" style="shape=partialRectangle;collapsible=0;dropTarget=0;pointerEvents=0;fillColor=none;top=0;left=0;bottom=0;right=0;points=[[0,0.5],[1,0.5]];portConstraint=eastwest;" parent="TI3GmT-DSjy5wb8d_JhB-1" vertex="1"><mxGeometry y="120" width="180" height="30" as="geometry"/></mxCell><mxCell id="TI3GmT-DSjy5wb8d_JhB-12" value="" style="shape=partialRectangle;connectable=0;fillColor=none;top=0;left=0;bottom=0;right=0;editable=1;overflow=hidden;" parent="TI3GmT-DSjy5wb8d_JhB-11" vertex="1"><mxGeometry width="30" height="30" as="geometry"/></mxCell><mxCell id="TI3GmT-DSjy5wb8d_JhB-13" value="questions" style="shape=partialRectangle;connectable=0;fillColor=none;top=0;left=0;bottom=0;right=0;align=left;spacingLeft=6;overflow=hidden;" parent="TI3GmT-DSjy5wb8d_JhB-11" vertex="1"><mxGeometry x="30" width="150" height="30" as="geometry"/></mxCell><mxCell id="TI3GmT-DSjy5wb8d_JhB-27" value="Question" style="shape=table;startSize=30;container=1;collapsible=1;childLayout=tableLayout;fixedRows=1;rowLines=0;fontStyle=1;align=center;resizeLast=1;" parent="1" vertex="1"><mxGeometry x="290" y="260" width="180" height="190" as="geometry"/></mxCell><mxCell id="TI3GmT-DSjy5wb8d_JhB-28" value="" style="shape=partialRectangle;collapsible=0;dropTarget=0;pointerEvents=0;fillColor=none;top=0;left=0;bottom=1;right=0;points=[[0,0.5],[1,0.5]];portConstraint=eastwest;" parent="TI3GmT-DSjy5wb8d_JhB-27" vertex="1"><mxGeometry y="30" width="180" height="30" as="geometry"/></mxCell><mxCell id="TI3GmT-DSjy5wb8d_JhB-29" value="PK" style="shape=partialRectangle;connectable=0;fillColor=none;top=0;left=0;bottom=0;right=0;fontStyle=1;overflow=hidden;" parent="TI3GmT-DSjy5wb8d_JhB-28" vertex="1"><mxGeometry width="30" height="30" as="geometry"/></mxCell><mxCell id="TI3GmT-DSjy5wb8d_JhB-30" value="UniqueID" style="shape=partialRectangle;connectable=0;fillColor=none;top=0;left=0;bottom=0;right=0;align=left;spacingLeft=6;fontStyle=5;overflow=hidden;" parent="TI3GmT-DSjy5wb8d_JhB-28" vertex="1"><mxGeometry x="30" width="150" height="30" as="geometry"/></mxCell><mxCell id="TI3GmT-DSjy5wb8d_JhB-31" value="" style="shape=partialRectangle;collapsible=0;dropTarget=0;pointerEvents=0;fillColor=none;top=0;left=0;bottom=0;right=0;points=[[0,0.5],[1,0.5]];portConstraint=eastwest;" parent="TI3GmT-DSjy5wb8d_JhB-27" vertex="1"><mxGeometry y="60" width="180" height="30" as="geometry"/></mxCell><mxCell id="TI3GmT-DSjy5wb8d_JhB-32" value="" style="shape=partialRectangle;connectable=0;fillColor=none;top=0;left=0;bottom=0;right=0;editable=1;overflow=hidden;" parent="TI3GmT-DSjy5wb8d_JhB-31" vertex="1"><mxGeometry width="30" height="30" as="geometry"/></mxCell><mxCell id="TI3GmT-DSjy5wb8d_JhB-33" value="text" style="shape=partialRectangle;connectable=0;fillColor=none;top=0;left=0;bottom=0;right=0;align=left;spacingLeft=6;overflow=hidden;" parent="TI3GmT-DSjy5wb8d_JhB-31" vertex="1"><mxGeometry x="30" width="150" height="30" as="geometry"/></mxCell><mxCell id="TI3GmT-DSjy5wb8d_JhB-34" value="" style="shape=partialRectangle;collapsible=0;dropTarget=0;pointerEvents=0;fillColor=none;top=0;left=0;bottom=0;right=0;points=[[0,0.5],[1,0.5]];portConstraint=eastwest;" parent="TI3GmT-DSjy5wb8d_JhB-27" vertex="1"><mxGeometry y="90" width="180" height="30" as="geometry"/></mxCell><mxCell id="TI3GmT-DSjy5wb8d_JhB-35" value="" style="shape=partialRectangle;connectable=0;fillColor=none;top=0;left=0;bottom=0;right=0;editable=1;overflow=hidden;" parent="TI3GmT-DSjy5wb8d_JhB-34" vertex="1"><mxGeometry width="30" height="30" as="geometry"/></mxCell><mxCell id="TI3GmT-DSjy5wb8d_JhB-36" value="multiResponse" style="shape=partialRectangle;connectable=0;fillColor=none;top=0;left=0;bottom=0;right=0;align=left;spacingLeft=6;overflow=hidden;" parent="TI3GmT-DSjy5wb8d_JhB-34" vertex="1"><mxGeometry x="30" width="150" height="30" as="geometry"/></mxCell><mxCell id="TI3GmT-DSjy5wb8d_JhB-37" value="" style="shape=partialRectangle;collapsible=0;dropTarget=0;pointerEvents=0;fillColor=none;top=0;left=0;bottom=0;right=0;points=[[0,0.5],[1,0.5]];portConstraint=eastwest;" parent="TI3GmT-DSjy5wb8d_JhB-27" vertex="1"><mxGeometry y="120" width="180" height="30" as="geometry"/></mxCell><mxCell id="TI3GmT-DSjy5wb8d_JhB-38" value="" style="shape=partialRectangle;connectable=0;fillColor=none;top=0;left=0;bottom=0;right=0;editable=1;overflow=hidden;" parent="TI3GmT-DSjy5wb8d_JhB-37" vertex="1"><mxGeometry width="30" height="30" as="geometry"/></mxCell><mxCell id="TI3GmT-DSjy5wb8d_JhB-39" value="choices" style="shape=partialRectangle;connectable=0;fillColor=none;top=0;left=0;bottom=0;right=0;align=left;spacingLeft=6;overflow=hidden;" parent="TI3GmT-DSjy5wb8d_JhB-37" vertex="1"><mxGeometry x="30" width="150" height="30" as="geometry"/></mxCell><mxCell id="TI3GmT-DSjy5wb8d_JhB-40" value="Answer" style="shape=table;startSize=30;container=1;collapsible=1;childLayout=tableLayout;fixedRows=1;rowLines=0;fontStyle=1;align=center;resizeLast=1;" parent="1" vertex="1"><mxGeometry x="460" y="475" width="180" height="150" as="geometry"/></mxCell><mxCell id="TI3GmT-DSjy5wb8d_JhB-41" value="" style="shape=partialRectangle;collapsible=0;dropTarget=0;pointerEvents=0;fillColor=none;top=0;left=0;bottom=1;right=0;points=[[0,0.5],[1,0.5]];portConstraint=eastwest;" parent="TI3GmT-DSjy5wb8d_JhB-40" vertex="1"><mxGeometry y="30" width="180" height="30" as="geometry"/></mxCell><mxCell id="TI3GmT-DSjy5wb8d_JhB-42" value="PK" style="shape=partialRectangle;connectable=0;fillColor=none;top=0;left=0;bottom=0;right=0;fontStyle=1;overflow=hidden;" parent="TI3GmT-DSjy5wb8d_JhB-41" vertex="1"><mxGeometry width="30" height="30" as="geometry"/></mxCell><mxCell id="TI3GmT-DSjy5wb8d_JhB-43" value="UniqueID" style="shape=partialRectangle;connectable=0;fillColor=none;top=0;left=0;bottom=0;right=0;align=left;spacingLeft=6;fontStyle=5;overflow=hidden;" parent="TI3GmT-DSjy5wb8d_JhB-41" vertex="1"><mxGeometry x="30" width="150" height="30" as="geometry"/></mxCell><mxCell id="TI3GmT-DSjy5wb8d_JhB-44" value="" style="shape=partialRectangle;collapsible=0;dropTarget=0;pointerEvents=0;fillColor=none;top=0;left=0;bottom=0;right=0;points=[[0,0.5],[1,0.5]];portConstraint=eastwest;" parent="TI3GmT-DSjy5wb8d_JhB-40" vertex="1"><mxGeometry y="60" width="180" height="30" as="geometry"/></mxCell><mxCell id="TI3GmT-DSjy5wb8d_JhB-45" value="" style="shape=partialRectangle;connectable=0;fillColor=none;top=0;left=0;bottom=0;right=0;editable=1;overflow=hidden;" parent="TI3GmT-DSjy5wb8d_JhB-44" vertex="1"><mxGeometry width="30" height="30" as="geometry"/></mxCell><mxCell id="TI3GmT-DSjy5wb8d_JhB-46" value="text" style="shape=partialRectangle;connectable=0;fillColor=none;top=0;left=0;bottom=0;right=0;align=left;spacingLeft=6;overflow=hidden;" parent="TI3GmT-DSjy5wb8d_JhB-44" vertex="1"><mxGeometry x="30" width="150" height="30" as="geometry"/></mxCell><mxCell id="TI3GmT-DSjy5wb8d_JhB-47" value="" style="shape=partialRectangle;collapsible=0;dropTarget=0;pointerEvents=0;fillColor=none;top=0;left=0;bottom=0;right=0;points=[[0,0.5],[1,0.5]];portConstraint=eastwest;" parent="TI3GmT-DSjy5wb8d_JhB-40" vertex="1"><mxGeometry y="90" width="180" height="30" as="geometry"/></mxCell><mxCell id="TI3GmT-DSjy5wb8d_JhB-48" value="" style="shape=partialRectangle;connectable=0;fillColor=none;top=0;left=0;bottom=0;right=0;editable=1;overflow=hidden;" parent="TI3GmT-DSjy5wb8d_JhB-47" vertex="1"><mxGeometry width="30" height="30" as="geometry"/></mxCell><mxCell id="TI3GmT-DSjy5wb8d_JhB-49" value="" style="shape=partialRectangle;connectable=0;fillColor=none;top=0;left=0;bottom=0;right=0;align=left;spacingLeft=6;overflow=hidden;" parent="TI3GmT-DSjy5wb8d_JhB-47" vertex="1"><mxGeometry x="30" width="150" height="30" as="geometry"/></mxCell><mxCell id="TI3GmT-DSjy5wb8d_JhB-50" value="" style="shape=partialRectangle;collapsible=0;dropTarget=0;pointerEvents=0;fillColor=none;top=0;left=0;bottom=0;right=0;points=[[0,0.5],[1,0.5]];portConstraint=eastwest;" parent="TI3GmT-DSjy5wb8d_JhB-40" vertex="1"><mxGeometry y="120" width="180" height="30" as="geometry"/></mxCell><mxCell id="TI3GmT-DSjy5wb8d_JhB-51" value="" style="shape=partialRectangle;connectable=0;fillColor=none;top=0;left=0;bottom=0;right=0;editable=1;overflow=hidden;" parent="TI3GmT-DSjy5wb8d_JhB-50" vertex="1"><mxGeometry width="30" height="30" as="geometry"/></mxCell><mxCell id="TI3GmT-DSjy5wb8d_JhB-52" value="" style="shape=partialRectangle;connectable=0;fillColor=none;top=0;left=0;bottom=0;right=0;align=left;spacingLeft=6;overflow=hidden;" parent="TI3GmT-DSjy5wb8d_JhB-50" vertex="1"><mxGeometry x="30" width="150" height="30" as="geometry"/></mxCell><mxCell id="2" value="correctAnswers" style="shape=partialRectangle;connectable=0;fillColor=none;top=0;left=0;bottom=0;right=0;align=left;spacingLeft=6;overflow=hidden;" vertex="1" parent="1"><mxGeometry x="320" y="410" width="150" height="30" as="geometry"/></mxCell><mxCell id="26" value="" style="endArrow=none;html=1;rounded=0;entryX=0;entryY=0.5;entryDx=0;entryDy=0;exitX=1;exitY=0.5;exitDx=0;exitDy=0;" edge="1" parent="1" source="TI3GmT-DSjy5wb8d_JhB-18" target="17"><mxGeometry relative="1" as="geometry"><mxPoint x="800" y="320" as="sourcePoint"/><mxPoint x="930" y="320" as="targetPoint"/></mxGeometry></mxCell><mxCell id="27" value="1" style="resizable=0;html=1;align=right;verticalAlign=bottom;" connectable="0" vertex="1" parent="26"><mxGeometry x="1" relative="1" as="geometry"><mxPoint x="-10" as="offset"/></mxGeometry></mxCell><mxCell id="TI3GmT-DSjy5wb8d_JhB-14" value="Participant" style="shape=table;startSize=30;container=1;collapsible=1;childLayout=tableLayout;fixedRows=1;rowLines=0;fontStyle=1;align=center;resizeLast=1;" parent="1" vertex="1"><mxGeometry x="620" y="160" width="180" height="150" as="geometry"/></mxCell><mxCell id="TI3GmT-DSjy5wb8d_JhB-15" value="" style="shape=partialRectangle;collapsible=0;dropTarget=0;pointerEvents=0;fillColor=none;top=0;left=0;bottom=1;right=0;points=[[0,0.5],[1,0.5]];portConstraint=eastwest;" parent="TI3GmT-DSjy5wb8d_JhB-14" vertex="1"><mxGeometry y="30" width="180" height="30" as="geometry"/></mxCell><mxCell id="TI3GmT-DSjy5wb8d_JhB-16" value="PK" style="shape=partialRectangle;connectable=0;fillColor=none;top=0;left=0;bottom=0;right=0;fontStyle=1;overflow=hidden;" parent="TI3GmT-DSjy5wb8d_JhB-15" vertex="1"><mxGeometry width="30" height="30" as="geometry"/></mxCell><mxCell id="TI3GmT-DSjy5wb8d_JhB-17" value="UniqueID" style="shape=partialRectangle;connectable=0;fillColor=none;top=0;left=0;bottom=0;right=0;align=left;spacingLeft=6;fontStyle=5;overflow=hidden;" parent="TI3GmT-DSjy5wb8d_JhB-15" vertex="1"><mxGeometry x="30" width="150" height="30" as="geometry"/></mxCell><mxCell id="TI3GmT-DSjy5wb8d_JhB-18" value="" style="shape=partialRectangle;collapsible=0;dropTarget=0;pointerEvents=0;fillColor=none;top=0;left=0;bottom=0;right=0;points=[[0,0.5],[1,0.5]];portConstraint=eastwest;" parent="TI3GmT-DSjy5wb8d_JhB-14" vertex="1"><mxGeometry y="60" width="180" height="30" as="geometry"/></mxCell><mxCell id="TI3GmT-DSjy5wb8d_JhB-19" value="" style="shape=partialRectangle;connectable=0;fillColor=none;top=0;left=0;bottom=0;right=0;editable=1;overflow=hidden;" parent="TI3GmT-DSjy5wb8d_JhB-18" vertex="1"><mxGeometry width="30" height="30" as="geometry"/></mxCell><mxCell id="TI3GmT-DSjy5wb8d_JhB-20" value="uuid" style="shape=partialRectangle;connectable=0;fillColor=none;top=0;left=0;bottom=0;right=0;align=left;spacingLeft=6;overflow=hidden;" parent="TI3GmT-DSjy5wb8d_JhB-18" vertex="1"><mxGeometry x="30" width="150" height="30" as="geometry"/></mxCell><mxCell id="TI3GmT-DSjy5wb8d_JhB-21" value="" style="shape=partialRectangle;collapsible=0;dropTarget=0;pointerEvents=0;fillColor=none;top=0;left=0;bottom=0;right=0;points=[[0,0.5],[1,0.5]];portConstraint=eastwest;" parent="TI3GmT-DSjy5wb8d_JhB-14" vertex="1"><mxGeometry y="90" width="180" height="30" as="geometry"/></mxCell><mxCell id="TI3GmT-DSjy5wb8d_JhB-22" value="" style="shape=partialRectangle;connectable=0;fillColor=none;top=0;left=0;bottom=0;right=0;editable=1;overflow=hidden;" parent="TI3GmT-DSjy5wb8d_JhB-21" vertex="1"><mxGeometry width="30" height="30" as="geometry"/></mxCell><mxCell id="TI3GmT-DSjy5wb8d_JhB-23" value="" style="shape=partialRectangle;connectable=0;fillColor=none;top=0;left=0;bottom=0;right=0;align=left;spacingLeft=6;overflow=hidden;" parent="TI3GmT-DSjy5wb8d_JhB-21" vertex="1"><mxGeometry x="30" width="150" height="30" as="geometry"/></mxCell><mxCell id="TI3GmT-DSjy5wb8d_JhB-24" value="" style="shape=partialRectangle;collapsible=0;dropTarget=0;pointerEvents=0;fillColor=none;top=0;left=0;bottom=0;right=0;points=[[0,0.5],[1,0.5]];portConstraint=eastwest;" parent="TI3GmT-DSjy5wb8d_JhB-14" vertex="1"><mxGeometry y="120" width="180" height="30" as="geometry"/></mxCell><mxCell id="TI3GmT-DSjy5wb8d_JhB-25" value="" style="shape=partialRectangle;connectable=0;fillColor=none;top=0;left=0;bottom=0;right=0;editable=1;overflow=hidden;" parent="TI3GmT-DSjy5wb8d_JhB-24" vertex="1"><mxGeometry width="30" height="30" as="geometry"/></mxCell><mxCell id="TI3GmT-DSjy5wb8d_JhB-26" value="" style="shape=partialRectangle;connectable=0;fillColor=none;top=0;left=0;bottom=0;right=0;align=left;spacingLeft=6;overflow=hidden;" parent="TI3GmT-DSjy5wb8d_JhB-24" vertex="1"><mxGeometry x="30" width="150" height="30" as="geometry"/></mxCell><mxCell id="13" value="SurveyProgress" style="shape=table;startSize=30;container=1;collapsible=1;childLayout=tableLayout;fixedRows=1;rowLines=0;fontStyle=1;align=center;resizeLast=1;" vertex="1" parent="1"><mxGeometry x="950" y="160" width="180" height="160" as="geometry"><mxRectangle x="950" y="160" width="120" height="30" as="alternateBounds"/></mxGeometry></mxCell><mxCell id="14" value="" style="shape=partialRectangle;collapsible=0;dropTarget=0;pointerEvents=0;fillColor=none;top=0;left=0;bottom=1;right=0;points=[[0,0.5],[1,0.5]];portConstraint=eastwest;" vertex="1" parent="13"><mxGeometry y="30" width="180" height="30" as="geometry"/></mxCell><mxCell id="15" value="PK" style="shape=partialRectangle;connectable=0;fillColor=none;top=0;left=0;bottom=0;right=0;fontStyle=1;overflow=hidden;" vertex="1" parent="14"><mxGeometry width="30" height="30" as="geometry"/></mxCell><mxCell id="16" value="UniqueID" style="shape=partialRectangle;connectable=0;fillColor=none;top=0;left=0;bottom=0;right=0;align=left;spacingLeft=6;fontStyle=5;overflow=hidden;" vertex="1" parent="14"><mxGeometry x="30" width="150" height="30" as="geometry"/></mxCell><mxCell id="17" value="" style="shape=partialRectangle;collapsible=0;dropTarget=0;pointerEvents=0;fillColor=none;top=0;left=0;bottom=0;right=0;points=[[0,0.5],[1,0.5]];portConstraint=eastwest;" vertex="1" parent="13"><mxGeometry y="60" width="180" height="30" as="geometry"/></mxCell><mxCell id="18" value="" style="shape=partialRectangle;connectable=0;fillColor=none;top=0;left=0;bottom=0;right=0;editable=1;overflow=hidden;" vertex="1" parent="17"><mxGeometry width="30" height="30" as="geometry"/></mxCell><mxCell id="19" value="CurrentQuestion" style="shape=partialRectangle;connectable=0;fillColor=none;top=0;left=0;bottom=0;right=0;align=left;spacingLeft=6;overflow=hidden;" vertex="1" parent="17"><mxGeometry x="30" width="150" height="30" as="geometry"/></mxCell><mxCell id="20" value="" style="shape=partialRectangle;collapsible=0;dropTarget=0;pointerEvents=0;fillColor=none;top=0;left=0;bottom=0;right=0;points=[[0,0.5],[1,0.5]];portConstraint=eastwest;" vertex="1" parent="13"><mxGeometry y="90" width="180" height="30" as="geometry"/></mxCell><mxCell id="21" value="" style="shape=partialRectangle;connectable=0;fillColor=none;top=0;left=0;bottom=0;right=0;editable=1;overflow=hidden;" vertex="1" parent="20"><mxGeometry width="30" height="30" as="geometry"/></mxCell><mxCell id="22" value="FinishedQuestions" style="shape=partialRectangle;connectable=0;fillColor=none;top=0;left=0;bottom=0;right=0;align=left;spacingLeft=6;overflow=hidden;" vertex="1" parent="20"><mxGeometry x="30" width="150" height="30" as="geometry"/></mxCell><mxCell id="23" value="" style="shape=partialRectangle;collapsible=0;dropTarget=0;pointerEvents=0;fillColor=none;top=0;left=0;bottom=0;right=0;points=[[0,0.5],[1,0.5]];portConstraint=eastwest;" vertex="1" parent="13"><mxGeometry y="120" width="180" height="30" as="geometry"/></mxCell><mxCell id="24" value="" style="shape=partialRectangle;connectable=0;fillColor=none;top=0;left=0;bottom=0;right=0;editable=1;overflow=hidden;" vertex="1" parent="23"><mxGeometry width="30" height="30" as="geometry"/></mxCell><mxCell id="25" value="Finished" style="shape=partialRectangle;connectable=0;fillColor=none;top=0;left=0;bottom=0;right=0;align=left;spacingLeft=6;overflow=hidden;" vertex="1" parent="23"><mxGeometry x="30" width="150" height="30" as="geometry"/></mxCell><mxCell id="29" value="Current Question" style="endArrow=none;html=1;rounded=0;entryX=1;entryY=0.5;entryDx=0;entryDy=0;exitX=0.25;exitY=1;exitDx=0;exitDy=0;" edge="1" parent="1" source="13" target="TI3GmT-DSjy5wb8d_JhB-31"><mxGeometry relative="1" as="geometry"><mxPoint x="700" y="360" as="sourcePoint"/><mxPoint x="860" y="360" as="targetPoint"/><Array as="points"><mxPoint x="995" y="335"/></Array></mxGeometry></mxCell><mxCell id="30" value="1" style="resizable=0;html=1;align=right;verticalAlign=bottom;" connectable="0" vertex="1" parent="29"><mxGeometry x="1" relative="1" as="geometry"><mxPoint x="20" as="offset"/></mxGeometry></mxCell><mxCell id="44" value="" style="endArrow=none;html=1;rounded=0;entryX=1;entryY=0.5;entryDx=0;entryDy=0;exitX=0.75;exitY=1;exitDx=0;exitDy=0;" edge="1" parent="1" source="13" target="35"><mxGeometry relative="1" as="geometry"><mxPoint x="930" y="450" as="sourcePoint"/><mxPoint x="1090" y="450" as="targetPoint"/><Array as="points"><mxPoint x="1085" y="525"/></Array></mxGeometry></mxCell><mxCell id="45" value="N" style="resizable=0;html=1;align=right;verticalAlign=bottom;" connectable="0" vertex="1" parent="44"><mxGeometry x="1" relative="1" as="geometry"><mxPoint x="20" as="offset"/></mxGeometry></mxCell><mxCell id="46" value="" style="endArrow=none;html=1;rounded=0;exitX=0.25;exitY=0;exitDx=0;exitDy=0;entryX=1;entryY=0.5;entryDx=0;entryDy=0;" edge="1" parent="1" source="31" target="TI3GmT-DSjy5wb8d_JhB-34"><mxGeometry relative="1" as="geometry"><mxPoint x="700" y="360" as="sourcePoint"/><mxPoint x="860" y="360" as="targetPoint"/><Array as="points"><mxPoint x="815" y="365"/></Array></mxGeometry></mxCell><mxCell id="47" value="1" style="resizable=0;html=1;align=right;verticalAlign=bottom;" connectable="0" vertex="1" parent="46"><mxGeometry x="1" relative="1" as="geometry"><mxPoint x="20" as="offset"/></mxGeometry></mxCell><mxCell id="48" value="" style="endArrow=none;html=1;rounded=0;exitX=0;exitY=0.5;exitDx=0;exitDy=0;" edge="1" parent="1" source="38"><mxGeometry relative="1" as="geometry"><mxPoint x="770" y="535" as="sourcePoint"/><mxPoint x="640" y="550" as="targetPoint"/><Array as="points"><mxPoint x="740" y="555"/><mxPoint x="740" y="550"/></Array></mxGeometry></mxCell><mxCell id="49" value="N" style="resizable=0;html=1;align=right;verticalAlign=bottom;" connectable="0" vertex="1" parent="48"><mxGeometry x="1" relative="1" as="geometry"><mxPoint x="20.25" y="-0.03" as="offset"/></mxGeometry></mxCell><mxCell id="31" value="FinishedQuestion" style="shape=table;startSize=30;container=1;collapsible=1;childLayout=tableLayout;fixedRows=1;rowLines=0;fontStyle=1;align=center;resizeLast=1;" vertex="1" parent="1"><mxGeometry x="770" y="450" width="180" height="170" as="geometry"/></mxCell><mxCell id="32" value="" style="shape=partialRectangle;collapsible=0;dropTarget=0;pointerEvents=0;fillColor=none;top=0;left=0;bottom=1;right=0;points=[[0,0.5],[1,0.5]];portConstraint=eastwest;" vertex="1" parent="31"><mxGeometry y="30" width="180" height="30" as="geometry"/></mxCell><mxCell id="33" value="PK" style="shape=partialRectangle;connectable=0;fillColor=none;top=0;left=0;bottom=0;right=0;fontStyle=1;overflow=hidden;" vertex="1" parent="32"><mxGeometry width="30" height="30" as="geometry"/></mxCell><mxCell id="34" value="UniqueID" style="shape=partialRectangle;connectable=0;fillColor=none;top=0;left=0;bottom=0;right=0;align=left;spacingLeft=6;fontStyle=5;overflow=hidden;" vertex="1" parent="32"><mxGeometry x="30" width="150" height="30" as="geometry"/></mxCell><mxCell id="35" value="" style="shape=partialRectangle;collapsible=0;dropTarget=0;pointerEvents=0;fillColor=none;top=0;left=0;bottom=0;right=0;points=[[0,0.5],[1,0.5]];portConstraint=eastwest;" vertex="1" parent="31"><mxGeometry y="60" width="180" height="30" as="geometry"/></mxCell><mxCell id="36" value="" style="shape=partialRectangle;connectable=0;fillColor=none;top=0;left=0;bottom=0;right=0;editable=1;overflow=hidden;" vertex="1" parent="35"><mxGeometry width="30" height="30" as="geometry"/></mxCell><mxCell id="37" value="Question" style="shape=partialRectangle;connectable=0;fillColor=none;top=0;left=0;bottom=0;right=0;align=left;spacingLeft=6;overflow=hidden;" vertex="1" parent="35"><mxGeometry x="30" width="150" height="30" as="geometry"/></mxCell><mxCell id="38" value="" style="shape=partialRectangle;collapsible=0;dropTarget=0;pointerEvents=0;fillColor=none;top=0;left=0;bottom=0;right=0;points=[[0,0.5],[1,0.5]];portConstraint=eastwest;" vertex="1" parent="31"><mxGeometry y="90" width="180" height="30" as="geometry"/></mxCell><mxCell id="39" value="" style="shape=partialRectangle;connectable=0;fillColor=none;top=0;left=0;bottom=0;right=0;editable=1;overflow=hidden;" vertex="1" parent="38"><mxGeometry width="30" height="30" as="geometry"/></mxCell><mxCell id="40" value="givenAnswers" style="shape=partialRectangle;connectable=0;fillColor=none;top=0;left=0;bottom=0;right=0;align=left;spacingLeft=6;overflow=hidden;" vertex="1" parent="38"><mxGeometry x="30" width="150" height="30" as="geometry"/></mxCell><mxCell id="41" value="" style="shape=partialRectangle;collapsible=0;dropTarget=0;pointerEvents=0;fillColor=none;top=0;left=0;bottom=0;right=0;points=[[0,0.5],[1,0.5]];portConstraint=eastwest;" vertex="1" parent="31"><mxGeometry y="120" width="180" height="30" as="geometry"/></mxCell><mxCell id="42" value="" style="shape=partialRectangle;connectable=0;fillColor=none;top=0;left=0;bottom=0;right=0;editable=1;overflow=hidden;" vertex="1" parent="41"><mxGeometry width="30" height="30" as="geometry"/></mxCell><mxCell id="43" value="" style="shape=partialRectangle;connectable=0;fillColor=none;top=0;left=0;bottom=0;right=0;align=left;spacingLeft=6;overflow=hidden;" vertex="1" parent="41"><mxGeometry x="30" width="150" height="30" as="geometry"/></mxCell><mxCell id="50" value="" style="endArrow=none;html=1;rounded=0;exitX=1;exitY=0.5;exitDx=0;exitDy=0;entryX=0.5;entryY=0;entryDx=0;entryDy=0;" edge="1" parent="1" source="TI3GmT-DSjy5wb8d_JhB-2" target="TI3GmT-DSjy5wb8d_JhB-14"><mxGeometry relative="1" as="geometry"><mxPoint x="400" y="150" as="sourcePoint"/><mxPoint x="560" y="150" as="targetPoint"/><Array as="points"><mxPoint x="710" y="120"/></Array></mxGeometry></mxCell><mxCell id="51" value="N" style="resizable=0;html=1;align=right;verticalAlign=bottom;" connectable="0" vertex="1" parent="50"><mxGeometry x="1" relative="1" as="geometry"/></mxCell><mxCell id="52" value="" style="endArrow=none;html=1;rounded=0;exitX=1;exitY=0.5;exitDx=0;exitDy=0;entryX=0.5;entryY=0;entryDx=0;entryDy=0;" edge="1" parent="1" source="TI3GmT-DSjy5wb8d_JhB-11" target="TI3GmT-DSjy5wb8d_JhB-27"><mxGeometry relative="1" as="geometry"><mxPoint x="550" y="420" as="sourcePoint"/><mxPoint x="710" y="420" as="targetPoint"/><Array as="points"><mxPoint x="380" y="215"/></Array></mxGeometry></mxCell><mxCell id="53" value="N" style="resizable=0;html=1;align=right;verticalAlign=bottom;" connectable="0" vertex="1" parent="52"><mxGeometry x="1" relative="1" as="geometry"/></mxCell><mxCell id="54" value="" style="endArrow=none;html=1;rounded=0;exitX=1;exitY=0.5;exitDx=0;exitDy=0;entryX=0.5;entryY=0;entryDx=0;entryDy=0;" edge="1" parent="1" source="TI3GmT-DSjy5wb8d_JhB-37" target="TI3GmT-DSjy5wb8d_JhB-40"><mxGeometry relative="1" as="geometry"><mxPoint x="440" y="340" as="sourcePoint"/><mxPoint x="600" y="340" as="targetPoint"/><Array as="points"><mxPoint x="550" y="395"/></Array></mxGeometry></mxCell><mxCell id="55" value="N" style="resizable=0;html=1;align=right;verticalAlign=bottom;" connectable="0" vertex="1" parent="54"><mxGeometry x="1" relative="1" as="geometry"/></mxCell></root></mxGraphModel></diagram></mxfile>